<mxfile host="app.diagrams.net" modified="2022-10-25T12:32:16.383Z" agent="5.0 (Windows NT 10.0; Win64; x64) AppleWebKit/537.36 (KHTML, like Gecko) Chrome/106.0.0.0 Safari/537.36 Edg/106.0.1370.47" etag="AA_d28RBkGn4P7C0VByp" version="20.5.0" type="github" pages="3">
  <diagram id="UFl60CgdH8m00kz_UivD" name="并行度框图">
    <mxGraphModel dx="1357" dy="768" grid="1" gridSize="10" guides="1" tooltips="1" connect="1" arrows="1" fold="1" page="1" pageScale="1" pageWidth="827" pageHeight="1169" math="1" shadow="0">
      <root>
        <mxCell id="0" />
        <mxCell id="1" parent="0" />
        <mxCell id="wrlIMMfH_xIOd0BWTdvA-90" value="" style="whiteSpace=wrap;html=1;dashed=1;" vertex="1" parent="1">
          <mxGeometry x="350" y="430" width="100" height="100" as="geometry" />
        </mxCell>
        <mxCell id="wrlIMMfH_xIOd0BWTdvA-89" value="" style="whiteSpace=wrap;html=1;dashed=1;" vertex="1" parent="1">
          <mxGeometry x="950" y="370" width="500" height="160" as="geometry" />
        </mxCell>
        <mxCell id="wrlIMMfH_xIOd0BWTdvA-82" value="" style="whiteSpace=wrap;html=1;dashed=1;fillColor=none;" vertex="1" parent="1">
          <mxGeometry x="910" y="310" width="220" height="100" as="geometry" />
        </mxCell>
        <mxCell id="wrlIMMfH_xIOd0BWTdvA-81" value="" style="whiteSpace=wrap;html=1;dashed=1;fillColor=none;" vertex="1" parent="1">
          <mxGeometry x="350" y="310" width="200" height="100" as="geometry" />
        </mxCell>
        <mxCell id="wrlIMMfH_xIOd0BWTdvA-80" value="" style="whiteSpace=wrap;html=1;dashed=1;" vertex="1" parent="1">
          <mxGeometry x="510" y="430" width="100" height="100" as="geometry" />
        </mxCell>
        <mxCell id="wrlIMMfH_xIOd0BWTdvA-77" value="" style="whiteSpace=wrap;html=1;dashed=1;" vertex="1" parent="1">
          <mxGeometry x="670" y="430" width="230" height="100" as="geometry" />
        </mxCell>
        <mxCell id="wrlIMMfH_xIOd0BWTdvA-71" value="" style="whiteSpace=wrap;html=1;dashed=1;" vertex="1" parent="1">
          <mxGeometry x="350" y="190" width="780" height="100" as="geometry" />
        </mxCell>
        <mxCell id="wrlIMMfH_xIOd0BWTdvA-68" value="" style="whiteSpace=wrap;html=1;dashed=1;" vertex="1" parent="1">
          <mxGeometry x="670" y="70" width="220" height="100" as="geometry" />
        </mxCell>
        <mxCell id="wrlIMMfH_xIOd0BWTdvA-67" value="" style="whiteSpace=wrap;html=1;dashed=1;" vertex="1" parent="1">
          <mxGeometry x="510" y="70" width="100" height="100" as="geometry" />
        </mxCell>
        <mxCell id="wrlIMMfH_xIOd0BWTdvA-76" value="" style="whiteSpace=wrap;html=1;dashed=1;fillColor=none;" vertex="1" parent="1">
          <mxGeometry x="350" y="310" width="780" height="100" as="geometry" />
        </mxCell>
        <mxCell id="wrlIMMfH_xIOd0BWTdvA-66" value="" style="whiteSpace=wrap;html=1;dashed=1;" vertex="1" parent="1">
          <mxGeometry x="350" y="70" width="100" height="100" as="geometry" />
        </mxCell>
        <mxCell id="wrlIMMfH_xIOd0BWTdvA-1" value="$$N_1 / 2$$" style="edgeStyle=orthogonalEdgeStyle;rounded=0;orthogonalLoop=1;jettySize=auto;html=1;exitX=1;exitY=0.5;exitDx=0;exitDy=0;entryX=0;entryY=0.5;entryDx=0;entryDy=0;" edge="1" parent="1" source="wrlIMMfH_xIOd0BWTdvA-2" target="wrlIMMfH_xIOd0BWTdvA-4">
          <mxGeometry relative="1" as="geometry" />
        </mxCell>
        <mxCell id="wrlIMMfH_xIOd0BWTdvA-2" value="Golden&lt;br&gt;(ROM)" style="rounded=0;whiteSpace=wrap;html=1;" vertex="1" parent="1">
          <mxGeometry x="200" y="80" width="80" height="80" as="geometry" />
        </mxCell>
        <mxCell id="wrlIMMfH_xIOd0BWTdvA-3" value="$$N_1$$" style="edgeStyle=orthogonalEdgeStyle;rounded=0;orthogonalLoop=1;jettySize=auto;html=1;exitX=1;exitY=0.5;exitDx=0;exitDy=0;entryX=0;entryY=0.5;entryDx=0;entryDy=0;" edge="1" parent="1" source="wrlIMMfH_xIOd0BWTdvA-4" target="wrlIMMfH_xIOd0BWTdvA-6">
          <mxGeometry relative="1" as="geometry" />
        </mxCell>
        <mxCell id="wrlIMMfH_xIOd0BWTdvA-4" value="Convenc" style="rounded=0;whiteSpace=wrap;html=1;" vertex="1" parent="1">
          <mxGeometry x="360" y="80" width="80" height="80" as="geometry" />
        </mxCell>
        <mxCell id="wrlIMMfH_xIOd0BWTdvA-5" value="$$N_1$$" style="edgeStyle=orthogonalEdgeStyle;rounded=0;orthogonalLoop=1;jettySize=auto;html=1;exitX=1;exitY=0.5;exitDx=0;exitDy=0;entryX=0;entryY=0.5;entryDx=0;entryDy=0;" edge="1" parent="1" source="wrlIMMfH_xIOd0BWTdvA-6" target="wrlIMMfH_xIOd0BWTdvA-10">
          <mxGeometry relative="1" as="geometry" />
        </mxCell>
        <mxCell id="wrlIMMfH_xIOd0BWTdvA-6" value="Matrix&lt;br&gt;Interleave" style="rounded=0;whiteSpace=wrap;html=1;" vertex="1" parent="1">
          <mxGeometry x="520" y="80" width="80" height="80" as="geometry" />
        </mxCell>
        <mxCell id="wrlIMMfH_xIOd0BWTdvA-73" value="$$N_1$$" style="edgeStyle=orthogonalEdgeStyle;rounded=0;orthogonalLoop=1;jettySize=auto;html=1;exitX=1;exitY=0.5;exitDx=0;exitDy=0;entryX=1;entryY=0.25;entryDx=0;entryDy=0;" edge="1" parent="1" source="wrlIMMfH_xIOd0BWTdvA-8" target="wrlIMMfH_xIOd0BWTdvA-72">
          <mxGeometry relative="1" as="geometry" />
        </mxCell>
        <mxCell id="wrlIMMfH_xIOd0BWTdvA-8" value="Qammod&lt;br&gt;with Bit &amp;amp; Power Allocation" style="rounded=0;whiteSpace=wrap;html=1;" vertex="1" parent="1">
          <mxGeometry x="800" y="80" width="80" height="80" as="geometry" />
        </mxCell>
        <mxCell id="wrlIMMfH_xIOd0BWTdvA-9" value="$$N_1*4$$" style="edgeStyle=orthogonalEdgeStyle;rounded=0;orthogonalLoop=1;jettySize=auto;html=1;exitX=1;exitY=0.5;exitDx=0;exitDy=0;entryX=0;entryY=0.5;entryDx=0;entryDy=0;" edge="1" parent="1" source="wrlIMMfH_xIOd0BWTdvA-10" target="wrlIMMfH_xIOd0BWTdvA-8">
          <mxGeometry relative="1" as="geometry" />
        </mxCell>
        <mxCell id="wrlIMMfH_xIOd0BWTdvA-10" value="S2P" style="rounded=0;whiteSpace=wrap;html=1;" vertex="1" parent="1">
          <mxGeometry x="680" y="80" width="40" height="80" as="geometry" />
        </mxCell>
        <mxCell id="wrlIMMfH_xIOd0BWTdvA-11" value="256&lt;br&gt;COMPLEX" style="edgeStyle=orthogonalEdgeStyle;rounded=0;orthogonalLoop=1;jettySize=auto;html=1;exitX=0;exitY=0.5;exitDx=0;exitDy=0;entryX=1;entryY=0.5;entryDx=0;entryDy=0;" edge="1" parent="1" source="wrlIMMfH_xIOd0BWTdvA-72" target="wrlIMMfH_xIOd0BWTdvA-30">
          <mxGeometry relative="1" as="geometry">
            <mxPoint x="1000" y="120" as="sourcePoint" />
          </mxGeometry>
        </mxCell>
        <mxCell id="wrlIMMfH_xIOd0BWTdvA-13" value="64" style="edgeStyle=orthogonalEdgeStyle;rounded=0;orthogonalLoop=1;jettySize=auto;html=1;exitX=0;exitY=0.5;exitDx=0;exitDy=0;entryX=1;entryY=0.5;entryDx=0;entryDy=0;" edge="1" parent="1" source="wrlIMMfH_xIOd0BWTdvA-14" target="wrlIMMfH_xIOd0BWTdvA-61">
          <mxGeometry relative="1" as="geometry" />
        </mxCell>
        <mxCell id="wrlIMMfH_xIOd0BWTdvA-14" value="IFFT" style="rounded=0;whiteSpace=wrap;html=1;" vertex="1" parent="1">
          <mxGeometry x="700" y="200" width="80" height="80" as="geometry" />
        </mxCell>
        <mxCell id="wrlIMMfH_xIOd0BWTdvA-17" style="rounded=0;orthogonalLoop=1;jettySize=auto;html=1;exitX=0;exitY=0.5;exitDx=0;exitDy=0;entryX=0.5;entryY=1;entryDx=0;entryDy=0;entryPerimeter=0;endArrow=none;endFill=0;" edge="1" parent="1" source="wrlIMMfH_xIOd0BWTdvA-18" target="wrlIMMfH_xIOd0BWTdvA-21">
          <mxGeometry relative="1" as="geometry" />
        </mxCell>
        <mxCell id="wrlIMMfH_xIOd0BWTdvA-18" value="+Preamble" style="rounded=0;whiteSpace=wrap;html=1;" vertex="1" parent="1">
          <mxGeometry x="200" y="200" width="80" height="80" as="geometry" />
        </mxCell>
        <mxCell id="wrlIMMfH_xIOd0BWTdvA-19" value="512&lt;br&gt;REAL" style="edgeStyle=orthogonalEdgeStyle;rounded=0;orthogonalLoop=1;jettySize=auto;html=1;exitX=0;exitY=0.5;exitDx=0;exitDy=0;entryX=1;entryY=0.5;entryDx=0;entryDy=0;" edge="1" parent="1" source="wrlIMMfH_xIOd0BWTdvA-20" target="wrlIMMfH_xIOd0BWTdvA-32">
          <mxGeometry relative="1" as="geometry" />
        </mxCell>
        <mxCell id="wrlIMMfH_xIOd0BWTdvA-20" value="IFFT&lt;br&gt;Post" style="rounded=0;whiteSpace=wrap;html=1;" vertex="1" parent="1">
          <mxGeometry x="460" y="200" width="80" height="80" as="geometry" />
        </mxCell>
        <mxCell id="wrlIMMfH_xIOd0BWTdvA-21" value="" style="verticalLabelPosition=bottom;shadow=0;dashed=0;align=center;html=1;verticalAlign=top;shape=mxgraph.electrical.radio.aerial_-_antenna_1;" vertex="1" parent="1">
          <mxGeometry x="140" y="200" width="40" height="40" as="geometry" />
        </mxCell>
        <mxCell id="wrlIMMfH_xIOd0BWTdvA-22" style="rounded=0;orthogonalLoop=1;jettySize=auto;html=1;exitX=0;exitY=0.5;exitDx=0;exitDy=0;entryX=0.5;entryY=1;entryDx=0;entryDy=0;entryPerimeter=0;endArrow=none;endFill=0;" edge="1" parent="1" source="wrlIMMfH_xIOd0BWTdvA-24" target="wrlIMMfH_xIOd0BWTdvA-25">
          <mxGeometry relative="1" as="geometry" />
        </mxCell>
        <mxCell id="wrlIMMfH_xIOd0BWTdvA-23" value="$${N_2\times 2+20&lt;br&gt;}\over 4$$" style="edgeStyle=none;rounded=0;orthogonalLoop=1;jettySize=auto;html=1;exitX=1;exitY=0.5;exitDx=0;exitDy=0;entryX=0;entryY=0.5;entryDx=0;entryDy=0;endArrow=classic;endFill=1;" edge="1" parent="1" source="wrlIMMfH_xIOd0BWTdvA-24" target="wrlIMMfH_xIOd0BWTdvA-34">
          <mxGeometry relative="1" as="geometry" />
        </mxCell>
        <mxCell id="wrlIMMfH_xIOd0BWTdvA-24" value="-Preamble" style="rounded=0;whiteSpace=wrap;html=1;" vertex="1" parent="1">
          <mxGeometry x="200" y="320" width="80" height="80" as="geometry" />
        </mxCell>
        <mxCell id="wrlIMMfH_xIOd0BWTdvA-25" value="" style="verticalLabelPosition=bottom;shadow=0;dashed=0;align=center;html=1;verticalAlign=top;shape=mxgraph.electrical.radio.aerial_-_antenna_1;" vertex="1" parent="1">
          <mxGeometry x="140" y="320" width="40" height="40" as="geometry" />
        </mxCell>
        <mxCell id="wrlIMMfH_xIOd0BWTdvA-26" value="64" style="edgeStyle=orthogonalEdgeStyle;rounded=0;orthogonalLoop=1;jettySize=auto;html=1;exitX=1;exitY=0.5;exitDx=0;exitDy=0;entryX=0;entryY=0.5;entryDx=0;entryDy=0;" edge="1" parent="1" source="wrlIMMfH_xIOd0BWTdvA-28" target="wrlIMMfH_xIOd0BWTdvA-36">
          <mxGeometry relative="1" as="geometry">
            <mxPoint x="820" y="360" as="targetPoint" />
          </mxGeometry>
        </mxCell>
        <mxCell id="wrlIMMfH_xIOd0BWTdvA-28" value="FFT" style="rounded=0;whiteSpace=wrap;html=1;" vertex="1" parent="1">
          <mxGeometry x="700" y="320" width="80" height="80" as="geometry" />
        </mxCell>
        <mxCell id="wrlIMMfH_xIOd0BWTdvA-29" value="256" style="edgeStyle=orthogonalEdgeStyle;rounded=0;orthogonalLoop=1;jettySize=auto;html=1;exitX=0;exitY=0.5;exitDx=0;exitDy=0;" edge="1" parent="1" source="wrlIMMfH_xIOd0BWTdvA-30" target="wrlIMMfH_xIOd0BWTdvA-59">
          <mxGeometry relative="1" as="geometry" />
        </mxCell>
        <mxCell id="wrlIMMfH_xIOd0BWTdvA-30" value="IFFT&lt;br&gt;Pre" style="rounded=0;whiteSpace=wrap;html=1;" vertex="1" parent="1">
          <mxGeometry x="920" y="200" width="80" height="80" as="geometry" />
        </mxCell>
        <mxCell id="wrlIMMfH_xIOd0BWTdvA-31" value="$$N_2\times 2+20$$" style="edgeStyle=none;rounded=0;orthogonalLoop=1;jettySize=auto;html=1;exitX=0;exitY=0.5;exitDx=0;exitDy=0;entryX=1;entryY=0.5;entryDx=0;entryDy=0;endArrow=classic;endFill=1;" edge="1" parent="1" source="wrlIMMfH_xIOd0BWTdvA-32" target="wrlIMMfH_xIOd0BWTdvA-18">
          <mxGeometry relative="1" as="geometry" />
        </mxCell>
        <mxCell id="wrlIMMfH_xIOd0BWTdvA-32" value="Ex-&lt;br&gt;tract&lt;br&gt;&amp;amp;&lt;br&gt;+CP" style="rounded=0;whiteSpace=wrap;html=1;" vertex="1" parent="1">
          <mxGeometry x="360" y="200" width="40" height="80" as="geometry" />
        </mxCell>
        <mxCell id="wrlIMMfH_xIOd0BWTdvA-34" value="-CP&lt;br&gt;&amp;amp;&lt;br&gt;Pad" style="rounded=0;whiteSpace=wrap;html=1;" vertex="1" parent="1">
          <mxGeometry x="360" y="320" width="40" height="80" as="geometry" />
        </mxCell>
        <mxCell id="wrlIMMfH_xIOd0BWTdvA-33" value="128&lt;br&gt;REAL" style="edgeStyle=none;rounded=0;orthogonalLoop=1;jettySize=auto;html=1;exitX=1;exitY=0.5;exitDx=0;exitDy=0;entryX=0;entryY=0.5;entryDx=0;entryDy=0;endArrow=classic;endFill=1;" edge="1" parent="1" source="wrlIMMfH_xIOd0BWTdvA-34" target="wrlIMMfH_xIOd0BWTdvA-38">
          <mxGeometry relative="1" as="geometry" />
        </mxCell>
        <mxCell id="wrlIMMfH_xIOd0BWTdvA-35" value="64" style="edgeStyle=none;rounded=0;orthogonalLoop=1;jettySize=auto;html=1;exitX=1;exitY=0.5;exitDx=0;exitDy=0;entryX=0;entryY=0.5;entryDx=0;entryDy=0;endArrow=classic;endFill=1;" edge="1" parent="1" source="wrlIMMfH_xIOd0BWTdvA-36" target="wrlIMMfH_xIOd0BWTdvA-40">
          <mxGeometry relative="1" as="geometry" />
        </mxCell>
        <mxCell id="wrlIMMfH_xIOd0BWTdvA-36" value="FFT&lt;br&gt;Post" style="rounded=0;whiteSpace=wrap;html=1;" vertex="1" parent="1">
          <mxGeometry x="920" y="320" width="80" height="80" as="geometry" />
        </mxCell>
        <mxCell id="wrlIMMfH_xIOd0BWTdvA-37" value="64&lt;br&gt;COMPLEX" style="edgeStyle=orthogonalEdgeStyle;rounded=0;orthogonalLoop=1;jettySize=auto;html=1;exitX=1;exitY=0.5;exitDx=0;exitDy=0;entryX=0;entryY=0.5;entryDx=0;entryDy=0;" edge="1" parent="1" source="wrlIMMfH_xIOd0BWTdvA-38" target="wrlIMMfH_xIOd0BWTdvA-28">
          <mxGeometry relative="1" as="geometry">
            <mxPoint x="620.0000000000002" y="360" as="targetPoint" />
          </mxGeometry>
        </mxCell>
        <mxCell id="wrlIMMfH_xIOd0BWTdvA-38" value="FFT&lt;br&gt;Pre" style="rounded=0;whiteSpace=wrap;html=1;" vertex="1" parent="1">
          <mxGeometry x="460" y="320" width="80" height="80" as="geometry" />
        </mxCell>
        <mxCell id="wrlIMMfH_xIOd0BWTdvA-39" value="64" style="edgeStyle=orthogonalEdgeStyle;rounded=0;orthogonalLoop=1;jettySize=auto;html=1;exitX=1;exitY=0.5;exitDx=0;exitDy=0;entryX=1;entryY=0.5;entryDx=0;entryDy=0;endArrow=classic;endFill=1;" edge="1" parent="1" source="wrlIMMfH_xIOd0BWTdvA-40" target="wrlIMMfH_xIOd0BWTdvA-43">
          <mxGeometry x="-0.5" relative="1" as="geometry">
            <mxPoint x="1000" y="480" as="targetPoint" />
            <Array as="points">
              <mxPoint x="1480" y="360" />
              <mxPoint x="1480" y="450" />
            </Array>
            <mxPoint as="offset" />
          </mxGeometry>
        </mxCell>
        <mxCell id="wrlIMMfH_xIOd0BWTdvA-40" value="Ex-&lt;br&gt;tract" style="rounded=0;whiteSpace=wrap;html=1;" vertex="1" parent="1">
          <mxGeometry x="1080" y="320" width="40" height="80" as="geometry" />
        </mxCell>
        <mxCell id="wrlIMMfH_xIOd0BWTdvA-41" value="64" style="edgeStyle=orthogonalEdgeStyle;rounded=0;orthogonalLoop=1;jettySize=auto;html=1;exitX=0;exitY=0.25;exitDx=0;exitDy=0;entryX=1;entryY=0.5;entryDx=0;entryDy=0;endArrow=classic;endFill=1;" edge="1" parent="1" source="wrlIMMfH_xIOd0BWTdvA-43" target="wrlIMMfH_xIOd0BWTdvA-45">
          <mxGeometry relative="1" as="geometry" />
        </mxCell>
        <mxCell id="wrlIMMfH_xIOd0BWTdvA-42" value="64" style="edgeStyle=orthogonalEdgeStyle;rounded=0;orthogonalLoop=1;jettySize=auto;html=1;exitX=0;exitY=0.75;exitDx=0;exitDy=0;entryX=1;entryY=0.75;entryDx=0;entryDy=0;endArrow=classic;endFill=1;" edge="1" parent="1" source="wrlIMMfH_xIOd0BWTdvA-43" target="wrlIMMfH_xIOd0BWTdvA-47">
          <mxGeometry relative="1" as="geometry">
            <mxPoint x="1400" y="480" as="sourcePoint" />
          </mxGeometry>
        </mxCell>
        <mxCell id="wrlIMMfH_xIOd0BWTdvA-43" value="Split" style="rounded=0;whiteSpace=wrap;html=1;" vertex="1" parent="1">
          <mxGeometry x="1400" y="380" width="40" height="140" as="geometry" />
        </mxCell>
        <mxCell id="wrlIMMfH_xIOd0BWTdvA-44" value="64" style="edgeStyle=orthogonalEdgeStyle;rounded=0;orthogonalLoop=1;jettySize=auto;html=1;exitX=0;exitY=0.5;exitDx=0;exitDy=0;entryX=1;entryY=0.25;entryDx=0;entryDy=0;endArrow=classic;endFill=1;" edge="1" parent="1" source="wrlIMMfH_xIOd0BWTdvA-45" target="wrlIMMfH_xIOd0BWTdvA-47">
          <mxGeometry relative="1" as="geometry">
            <mxPoint x="1240" y="420" as="sourcePoint" />
          </mxGeometry>
        </mxCell>
        <mxCell id="wrlIMMfH_xIOd0BWTdvA-45" value="Channel&lt;br&gt;Estimation" style="rounded=0;whiteSpace=wrap;html=1;" vertex="1" parent="1">
          <mxGeometry x="1260" y="380" width="80" height="80" as="geometry" />
        </mxCell>
        <mxCell id="wrlIMMfH_xIOd0BWTdvA-86" value="64" style="edgeStyle=orthogonalEdgeStyle;rounded=0;orthogonalLoop=1;jettySize=auto;html=1;exitX=0;exitY=0.5;exitDx=0;exitDy=0;entryX=1;entryY=0.5;entryDx=0;entryDy=0;" edge="1" parent="1" source="wrlIMMfH_xIOd0BWTdvA-47" target="wrlIMMfH_xIOd0BWTdvA-84">
          <mxGeometry relative="1" as="geometry" />
        </mxCell>
        <mxCell id="wrlIMMfH_xIOd0BWTdvA-47" value="Channel&lt;br&gt;Equalization" style="rounded=0;whiteSpace=wrap;html=1;" vertex="1" parent="1">
          <mxGeometry x="1120" y="440" width="80" height="80" as="geometry" />
        </mxCell>
        <mxCell id="wrlIMMfH_xIOd0BWTdvA-48" value="$$N_1 / 2 \approx 128$$" style="text;html=1;align=center;verticalAlign=middle;resizable=0;points=[];autosize=1;strokeColor=none;fillColor=none;" vertex="1" parent="1">
          <mxGeometry x="160" y="40" width="160" height="30" as="geometry" />
        </mxCell>
        <mxCell id="wrlIMMfH_xIOd0BWTdvA-49" value="$$N_1*4$$" style="edgeStyle=orthogonalEdgeStyle;rounded=0;orthogonalLoop=1;jettySize=auto;html=1;exitX=0;exitY=0.5;exitDx=0;exitDy=0;entryX=1;entryY=0.5;entryDx=0;entryDy=0;endArrow=classic;endFill=1;" edge="1" parent="1" source="wrlIMMfH_xIOd0BWTdvA-50" target="wrlIMMfH_xIOd0BWTdvA-52">
          <mxGeometry relative="1" as="geometry" />
        </mxCell>
        <mxCell id="wrlIMMfH_xIOd0BWTdvA-50" value="Qamdemod&lt;br&gt;with Bit &amp;amp; Power Allocation" style="rounded=0;whiteSpace=wrap;html=1;" vertex="1" parent="1">
          <mxGeometry x="800" y="440" width="80" height="80" as="geometry" />
        </mxCell>
        <mxCell id="wrlIMMfH_xIOd0BWTdvA-51" value="$$N_1$$" style="edgeStyle=orthogonalEdgeStyle;rounded=0;orthogonalLoop=1;jettySize=auto;html=1;exitX=0;exitY=0.5;exitDx=0;exitDy=0;entryX=1;entryY=0.5;entryDx=0;entryDy=0;endArrow=classic;endFill=1;" edge="1" parent="1" source="wrlIMMfH_xIOd0BWTdvA-52" target="wrlIMMfH_xIOd0BWTdvA-54">
          <mxGeometry relative="1" as="geometry" />
        </mxCell>
        <mxCell id="wrlIMMfH_xIOd0BWTdvA-52" value="P2S" style="rounded=0;whiteSpace=wrap;html=1;" vertex="1" parent="1">
          <mxGeometry x="680" y="440" width="40" height="80" as="geometry" />
        </mxCell>
        <mxCell id="wrlIMMfH_xIOd0BWTdvA-53" value="$$N_1$$" style="edgeStyle=orthogonalEdgeStyle;rounded=0;orthogonalLoop=1;jettySize=auto;html=1;exitX=0;exitY=0.5;exitDx=0;exitDy=0;entryX=1;entryY=0.5;entryDx=0;entryDy=0;endArrow=classic;endFill=1;" edge="1" parent="1" source="wrlIMMfH_xIOd0BWTdvA-54" target="wrlIMMfH_xIOd0BWTdvA-56">
          <mxGeometry relative="1" as="geometry" />
        </mxCell>
        <mxCell id="wrlIMMfH_xIOd0BWTdvA-54" value="Matrix&lt;br&gt;Deinterleave" style="rounded=0;whiteSpace=wrap;html=1;" vertex="1" parent="1">
          <mxGeometry x="520" y="440" width="80" height="80" as="geometry" />
        </mxCell>
        <mxCell id="wrlIMMfH_xIOd0BWTdvA-55" style="edgeStyle=orthogonalEdgeStyle;rounded=0;orthogonalLoop=1;jettySize=auto;html=1;exitX=0;exitY=0.5;exitDx=0;exitDy=0;entryX=1;entryY=0.5;entryDx=0;entryDy=0;endArrow=classic;endFill=1;" edge="1" parent="1" source="wrlIMMfH_xIOd0BWTdvA-56" target="wrlIMMfH_xIOd0BWTdvA-57">
          <mxGeometry relative="1" as="geometry" />
        </mxCell>
        <mxCell id="wrlIMMfH_xIOd0BWTdvA-56" value="Vitdec" style="rounded=0;whiteSpace=wrap;html=1;" vertex="1" parent="1">
          <mxGeometry x="360" y="440" width="80" height="80" as="geometry" />
        </mxCell>
        <mxCell id="wrlIMMfH_xIOd0BWTdvA-57" value="iter0&lt;br&gt;result" style="rounded=0;whiteSpace=wrap;html=1;" vertex="1" parent="1">
          <mxGeometry x="200" y="440" width="80" height="80" as="geometry" />
        </mxCell>
        <mxCell id="wrlIMMfH_xIOd0BWTdvA-58" value="64" style="edgeStyle=orthogonalEdgeStyle;rounded=0;orthogonalLoop=1;jettySize=auto;html=1;exitX=0;exitY=0.5;exitDx=0;exitDy=0;entryX=1;entryY=0.5;entryDx=0;entryDy=0;" edge="1" parent="1" source="wrlIMMfH_xIOd0BWTdvA-59" target="wrlIMMfH_xIOd0BWTdvA-14">
          <mxGeometry relative="1" as="geometry" />
        </mxCell>
        <mxCell id="wrlIMMfH_xIOd0BWTdvA-59" value="P2S" style="rounded=0;whiteSpace=wrap;html=1;" vertex="1" parent="1">
          <mxGeometry x="820" y="200" width="40" height="80" as="geometry" />
        </mxCell>
        <mxCell id="wrlIMMfH_xIOd0BWTdvA-60" value="256&lt;br&gt;COMPLEX" style="edgeStyle=orthogonalEdgeStyle;rounded=0;orthogonalLoop=1;jettySize=auto;html=1;exitX=0;exitY=0.5;exitDx=0;exitDy=0;entryX=1;entryY=0.5;entryDx=0;entryDy=0;" edge="1" parent="1" source="wrlIMMfH_xIOd0BWTdvA-61" target="wrlIMMfH_xIOd0BWTdvA-20">
          <mxGeometry relative="1" as="geometry" />
        </mxCell>
        <mxCell id="wrlIMMfH_xIOd0BWTdvA-61" value="S2P" style="rounded=0;whiteSpace=wrap;html=1;" vertex="1" parent="1">
          <mxGeometry x="620" y="200" width="40" height="80" as="geometry" />
        </mxCell>
        <mxCell id="wrlIMMfH_xIOd0BWTdvA-72" value="Pad" style="rounded=0;whiteSpace=wrap;html=1;" vertex="1" parent="1">
          <mxGeometry x="1080" y="200" width="40" height="80" as="geometry" />
        </mxCell>
        <mxCell id="wrlIMMfH_xIOd0BWTdvA-74" value="&lt;span style=&quot;font-size: 12px; background-color: rgb(248, 249, 250);&quot;&gt;zero&lt;/span&gt;" style="endArrow=classic;html=1;rounded=0;entryX=1;entryY=0.75;entryDx=0;entryDy=0;" edge="1" parent="1" target="wrlIMMfH_xIOd0BWTdvA-72">
          <mxGeometry x="-1" y="-20" width="50" height="50" relative="1" as="geometry">
            <mxPoint x="1160" y="260" as="sourcePoint" />
            <mxPoint x="1220" y="250" as="targetPoint" />
            <mxPoint x="20" y="20" as="offset" />
          </mxGeometry>
        </mxCell>
        <mxCell id="wrlIMMfH_xIOd0BWTdvA-85" value="$$N_1$$" style="edgeStyle=orthogonalEdgeStyle;rounded=0;orthogonalLoop=1;jettySize=auto;html=1;exitX=0;exitY=0.5;exitDx=0;exitDy=0;entryX=1;entryY=0.5;entryDx=0;entryDy=0;" edge="1" parent="1" source="wrlIMMfH_xIOd0BWTdvA-84" target="wrlIMMfH_xIOd0BWTdvA-50">
          <mxGeometry relative="1" as="geometry" />
        </mxCell>
        <mxCell id="wrlIMMfH_xIOd0BWTdvA-84" value="S2P" style="rounded=0;whiteSpace=wrap;html=1;" vertex="1" parent="1">
          <mxGeometry x="960" y="440" width="40" height="80" as="geometry" />
        </mxCell>
        <mxCell id="wrlIMMfH_xIOd0BWTdvA-91" value="" style="whiteSpace=wrap;html=1;dashed=1;" vertex="1" parent="1">
          <mxGeometry x="1200" y="120" width="40" height="40" as="geometry" />
        </mxCell>
        <mxCell id="wrlIMMfH_xIOd0BWTdvA-92" value="单个硬件module范围" style="text;html=1;align=center;verticalAlign=middle;resizable=0;points=[];autosize=1;strokeColor=none;fillColor=none;" vertex="1" parent="1">
          <mxGeometry x="1240" y="125" width="130" height="30" as="geometry" />
        </mxCell>
      </root>
    </mxGraphModel>
  </diagram>
  <diagram id="wfD-S9JNLc16P4IW1Why" name="第 2 页">
    <mxGraphModel dx="937" dy="530" grid="1" gridSize="10" guides="1" tooltips="1" connect="1" arrows="1" fold="1" page="1" pageScale="1" pageWidth="827" pageHeight="1169" math="1" shadow="0">
      <root>
        <mxCell id="0" />
        <mxCell id="1" parent="0" />
        <mxCell id="m-3l5Tcv6tkyBa8c3HCI-43" value="min-plus algebra" style="verticalLabelPosition=bottom;verticalAlign=top;html=1;shape=mxgraph.basic.rect;fillColor2=none;strokeWidth=1;size=20;indent=5;fontFamily=Helvetica;fontSize=12;fontColor=default;align=center;strokeColor=default;fillColor=none;dashed=1;" vertex="1" parent="1">
          <mxGeometry x="160" y="640" width="170" height="120" as="geometry" />
        </mxCell>
        <mxCell id="m-3l5Tcv6tkyBa8c3HCI-9" value="" style="rounded=0;whiteSpace=wrap;html=1;fillColor=#d5e8d4;strokeColor=#82b366;" vertex="1" parent="1">
          <mxGeometry x="320" y="390" width="40" height="60" as="geometry" />
        </mxCell>
        <mxCell id="m-3l5Tcv6tkyBa8c3HCI-7" value="" style="rounded=0;whiteSpace=wrap;html=1;fillColor=#dae8fc;strokeColor=#6c8ebf;" vertex="1" parent="1">
          <mxGeometry x="280" y="390" width="40" height="60" as="geometry" />
        </mxCell>
        <mxCell id="m-3l5Tcv6tkyBa8c3HCI-5" value="discrepancy" style="edgeStyle=orthogonalEdgeStyle;rounded=0;orthogonalLoop=1;jettySize=auto;html=1;exitX=1;exitY=0.5;exitDx=0;exitDy=0;entryX=0;entryY=0.5;entryDx=0;entryDy=0;" edge="1" parent="1" source="m-3l5Tcv6tkyBa8c3HCI-1" target="m-3l5Tcv6tkyBa8c3HCI-4">
          <mxGeometry relative="1" as="geometry" />
        </mxCell>
        <mxCell id="m-3l5Tcv6tkyBa8c3HCI-1" value="ACS&lt;br&gt;(min-plus)" style="rounded=0;whiteSpace=wrap;html=1;fillColor=none;" vertex="1" parent="1">
          <mxGeometry x="120" y="390" width="80" height="60" as="geometry" />
        </mxCell>
        <mxCell id="m-3l5Tcv6tkyBa8c3HCI-3" style="edgeStyle=orthogonalEdgeStyle;rounded=0;orthogonalLoop=1;jettySize=auto;html=1;entryX=0;entryY=0.5;entryDx=0;entryDy=0;" edge="1" parent="1" source="m-3l5Tcv6tkyBa8c3HCI-2" target="m-3l5Tcv6tkyBa8c3HCI-1">
          <mxGeometry relative="1" as="geometry" />
        </mxCell>
        <mxCell id="m-3l5Tcv6tkyBa8c3HCI-2" value="coded" style="text;html=1;align=center;verticalAlign=middle;resizable=0;points=[];autosize=1;strokeColor=none;fillColor=none;" vertex="1" parent="1">
          <mxGeometry x="40" y="405" width="60" height="30" as="geometry" />
        </mxCell>
        <mxCell id="m-3l5Tcv6tkyBa8c3HCI-10" value="discrepancy" style="edgeStyle=orthogonalEdgeStyle;rounded=0;orthogonalLoop=1;jettySize=auto;html=1;exitX=1;exitY=0.5;exitDx=0;exitDy=0;entryX=0;entryY=0.5;entryDx=0;entryDy=0;" edge="1" parent="1" source="m-3l5Tcv6tkyBa8c3HCI-4" target="m-3l5Tcv6tkyBa8c3HCI-6">
          <mxGeometry relative="1" as="geometry" />
        </mxCell>
        <mxCell id="m-3l5Tcv6tkyBa8c3HCI-4" value="PIPO" style="rounded=0;whiteSpace=wrap;html=1;fillColor=none;" vertex="1" parent="1">
          <mxGeometry x="280" y="390" width="80" height="60" as="geometry" />
        </mxCell>
        <mxCell id="m-3l5Tcv6tkyBa8c3HCI-14" style="edgeStyle=orthogonalEdgeStyle;rounded=0;orthogonalLoop=1;jettySize=auto;html=1;exitX=1;exitY=0.5;exitDx=0;exitDy=0;entryX=0;entryY=0.5;entryDx=0;entryDy=0;" edge="1" parent="1" source="m-3l5Tcv6tkyBa8c3HCI-6" target="m-3l5Tcv6tkyBa8c3HCI-13">
          <mxGeometry relative="1" as="geometry" />
        </mxCell>
        <mxCell id="m-3l5Tcv6tkyBa8c3HCI-6" value="TB" style="rounded=0;whiteSpace=wrap;html=1;fillColor=none;" vertex="1" parent="1">
          <mxGeometry x="440" y="390" width="80" height="60" as="geometry" />
        </mxCell>
        <mxCell id="m-3l5Tcv6tkyBa8c3HCI-11" value="" style="rounded=0;whiteSpace=wrap;html=1;fillColor=#d5e8d4;strokeColor=#82b366;" vertex="1" parent="1">
          <mxGeometry x="600" y="410" width="40" height="20" as="geometry" />
        </mxCell>
        <mxCell id="m-3l5Tcv6tkyBa8c3HCI-12" value="" style="rounded=0;whiteSpace=wrap;html=1;fillColor=#dae8fc;strokeColor=#6c8ebf;" vertex="1" parent="1">
          <mxGeometry x="560" y="410" width="40" height="20" as="geometry" />
        </mxCell>
        <mxCell id="m-3l5Tcv6tkyBa8c3HCI-18" style="edgeStyle=orthogonalEdgeStyle;rounded=0;orthogonalLoop=1;jettySize=auto;html=1;exitX=1;exitY=0.5;exitDx=0;exitDy=0;" edge="1" parent="1" source="m-3l5Tcv6tkyBa8c3HCI-13" target="m-3l5Tcv6tkyBa8c3HCI-19">
          <mxGeometry relative="1" as="geometry">
            <mxPoint x="680" y="420" as="targetPoint" />
          </mxGeometry>
        </mxCell>
        <mxCell id="m-3l5Tcv6tkyBa8c3HCI-13" value="PIPO" style="rounded=0;whiteSpace=wrap;html=1;fillColor=none;" vertex="1" parent="1">
          <mxGeometry x="560" y="410" width="80" height="20" as="geometry" />
        </mxCell>
        <mxCell id="m-3l5Tcv6tkyBa8c3HCI-17" value="for reverse" style="text;html=1;align=center;verticalAlign=middle;resizable=0;points=[];autosize=1;strokeColor=none;fillColor=none;" vertex="1" parent="1">
          <mxGeometry x="560" y="430" width="80" height="30" as="geometry" />
        </mxCell>
        <mxCell id="m-3l5Tcv6tkyBa8c3HCI-19" value="decoded" style="text;html=1;align=center;verticalAlign=middle;resizable=0;points=[];autosize=1;strokeColor=none;fillColor=none;" vertex="1" parent="1">
          <mxGeometry x="680" y="405" width="70" height="30" as="geometry" />
        </mxCell>
        <mxCell id="m-3l5Tcv6tkyBa8c3HCI-26" value="64" style="edgeStyle=orthogonalEdgeStyle;rounded=0;orthogonalLoop=1;jettySize=auto;html=1;exitX=0.5;exitY=1;exitDx=0;exitDy=0;entryX=0.5;entryY=0;entryDx=0;entryDy=0;" edge="1" parent="1" source="m-3l5Tcv6tkyBa8c3HCI-21" target="m-3l5Tcv6tkyBa8c3HCI-25">
          <mxGeometry relative="1" as="geometry" />
        </mxCell>
        <mxCell id="m-3l5Tcv6tkyBa8c3HCI-21" value="inc ROM" style="rounded=0;whiteSpace=wrap;html=1;fillColor=none;" vertex="1" parent="1">
          <mxGeometry x="160" y="560" width="80" height="80" as="geometry" />
        </mxCell>
        <mxCell id="m-3l5Tcv6tkyBa8c3HCI-23" style="edgeStyle=orthogonalEdgeStyle;rounded=0;orthogonalLoop=1;jettySize=auto;html=1;entryX=0.5;entryY=0;entryDx=0;entryDy=0;" edge="1" parent="1" source="m-3l5Tcv6tkyBa8c3HCI-22" target="m-3l5Tcv6tkyBa8c3HCI-21">
          <mxGeometry relative="1" as="geometry" />
        </mxCell>
        <mxCell id="m-3l5Tcv6tkyBa8c3HCI-22" value="symbol" style="text;html=1;align=center;verticalAlign=middle;resizable=0;points=[];autosize=1;strokeColor=none;fillColor=none;" vertex="1" parent="1">
          <mxGeometry x="80" y="520" width="60" height="30" as="geometry" />
        </mxCell>
        <mxCell id="m-3l5Tcv6tkyBa8c3HCI-39" value="64" style="edgeStyle=orthogonalEdgeStyle;rounded=0;orthogonalLoop=1;jettySize=auto;html=1;exitX=1;exitY=0.5;exitDx=0;exitDy=0;entryX=0.5;entryY=1;entryDx=0;entryDy=0;" edge="1" parent="1" source="m-3l5Tcv6tkyBa8c3HCI-25" target="m-3l5Tcv6tkyBa8c3HCI-35">
          <mxGeometry relative="1" as="geometry" />
        </mxCell>
        <mxCell id="m-3l5Tcv6tkyBa8c3HCI-25" value="" style="shape=orEllipse;perimeter=ellipsePerimeter;whiteSpace=wrap;html=1;backgroundOutline=1;fontFamily=Helvetica;fontSize=12;fontColor=default;align=center;strokeColor=default;fillColor=none;" vertex="1" parent="1">
          <mxGeometry x="180" y="680" width="40" height="40" as="geometry" />
        </mxCell>
        <mxCell id="m-3l5Tcv6tkyBa8c3HCI-38" style="edgeStyle=orthogonalEdgeStyle;rounded=0;orthogonalLoop=1;jettySize=auto;html=1;exitX=1;exitY=0.5;exitDx=0;exitDy=0;entryX=0;entryY=0.5;entryDx=0;entryDy=0;" edge="1" parent="1" source="m-3l5Tcv6tkyBa8c3HCI-29" target="m-3l5Tcv6tkyBa8c3HCI-25">
          <mxGeometry relative="1" as="geometry" />
        </mxCell>
        <mxCell id="m-3l5Tcv6tkyBa8c3HCI-29" value="dis regs" style="rounded=0;whiteSpace=wrap;html=1;fillColor=none;" vertex="1" parent="1">
          <mxGeometry x="60" y="680" width="80" height="40" as="geometry" />
        </mxCell>
        <mxCell id="m-3l5Tcv6tkyBa8c3HCI-44" style="edgeStyle=orthogonalEdgeStyle;rounded=0;orthogonalLoop=1;jettySize=auto;html=1;exitX=0.5;exitY=0;exitDx=0;exitDy=0;entryX=0;entryY=0.5;entryDx=0;entryDy=0;" edge="1" parent="1" source="m-3l5Tcv6tkyBa8c3HCI-35" target="m-3l5Tcv6tkyBa8c3HCI-29">
          <mxGeometry relative="1" as="geometry">
            <Array as="points">
              <mxPoint x="340" y="701" />
              <mxPoint x="340" y="790" />
              <mxPoint x="40" y="790" />
              <mxPoint x="40" y="700" />
            </Array>
          </mxGeometry>
        </mxCell>
        <mxCell id="m-3l5Tcv6tkyBa8c3HCI-35" value="compare &amp;amp; &lt;br&gt;selecet" style="shape=trapezoid;perimeter=trapezoidPerimeter;whiteSpace=wrap;html=1;fixedSize=1;fillColor=none;rotation=90;horizontal=0;" vertex="1" parent="1">
          <mxGeometry x="239.38" y="670.62" width="101.25" height="60" as="geometry" />
        </mxCell>
        <mxCell id="m-3l5Tcv6tkyBa8c3HCI-41" value="ACS" style="text;html=1;align=center;verticalAlign=middle;resizable=0;points=[];autosize=1;strokeColor=none;fillColor=none;" vertex="1" parent="1">
          <mxGeometry x="175" y="785" width="50" height="30" as="geometry" />
        </mxCell>
        <mxCell id="m-3l5Tcv6tkyBa8c3HCI-42" value="pre-computed&lt;br&gt;hamming value&lt;br&gt;for each path" style="text;html=1;align=center;verticalAlign=middle;resizable=0;points=[];autosize=1;strokeColor=none;fillColor=none;" vertex="1" parent="1">
          <mxGeometry x="240" y="570" width="100" height="60" as="geometry" />
        </mxCell>
      </root>
    </mxGraphModel>
  </diagram>
  <diagram id="gV_5ZuSGYGWQ_dB6_s_f" name="分级存储">
    <mxGraphModel dx="787" dy="446" grid="1" gridSize="10" guides="1" tooltips="1" connect="1" arrows="1" fold="1" page="1" pageScale="1" pageWidth="827" pageHeight="1169" math="1" shadow="0">
      <root>
        <mxCell id="0" />
        <mxCell id="1" parent="0" />
        <mxCell id="b8qgKqUeZm1vUjHzAKTM-6" style="edgeStyle=orthogonalEdgeStyle;rounded=0;orthogonalLoop=1;jettySize=auto;html=1;exitX=0.5;exitY=1;exitDx=0;exitDy=0;entryX=0;entryY=0.5;entryDx=0;entryDy=0;" edge="1" parent="1" source="b8qgKqUeZm1vUjHzAKTM-1" target="b8qgKqUeZm1vUjHzAKTM-5">
          <mxGeometry relative="1" as="geometry" />
        </mxCell>
        <mxCell id="b8qgKqUeZm1vUjHzAKTM-1" value="reg" style="rounded=0;whiteSpace=wrap;html=1;fillColor=none;" vertex="1" parent="1">
          <mxGeometry x="160" y="120" width="40" height="40" as="geometry" />
        </mxCell>
        <mxCell id="b8qgKqUeZm1vUjHzAKTM-4" style="edgeStyle=orthogonalEdgeStyle;rounded=0;orthogonalLoop=1;jettySize=auto;html=1;exitX=1;exitY=0.5;exitDx=0;exitDy=0;entryX=0.5;entryY=0;entryDx=0;entryDy=0;" edge="1" parent="1" source="b8qgKqUeZm1vUjHzAKTM-3" target="b8qgKqUeZm1vUjHzAKTM-1">
          <mxGeometry relative="1" as="geometry" />
        </mxCell>
        <mxCell id="b8qgKqUeZm1vUjHzAKTM-3" value="" style="whiteSpace=wrap;html=1;fillColor=none;strokeColor=none;" vertex="1" parent="1">
          <mxGeometry x="80" y="80" width="40" height="40" as="geometry" />
        </mxCell>
        <mxCell id="b8qgKqUeZm1vUjHzAKTM-5" value="" style="whiteSpace=wrap;html=1;fillColor=none;strokeColor=none;" vertex="1" parent="1">
          <mxGeometry x="240" y="160" width="40" height="40" as="geometry" />
        </mxCell>
        <mxCell id="b8qgKqUeZm1vUjHzAKTM-7" value="1" style="endArrow=classic;startArrow=classic;html=1;rounded=0;" edge="1" parent="1">
          <mxGeometry width="50" height="50" relative="1" as="geometry">
            <mxPoint x="160" y="200" as="sourcePoint" />
            <mxPoint x="200" y="200" as="targetPoint" />
          </mxGeometry>
        </mxCell>
        <mxCell id="b8qgKqUeZm1vUjHzAKTM-8" value="1" style="endArrow=classic;startArrow=classic;html=1;rounded=0;" edge="1" parent="1">
          <mxGeometry width="50" height="50" relative="1" as="geometry">
            <mxPoint x="140" y="120" as="sourcePoint" />
            <mxPoint x="140" y="160" as="targetPoint" />
          </mxGeometry>
        </mxCell>
        <mxCell id="b8qgKqUeZm1vUjHzAKTM-10" style="edgeStyle=orthogonalEdgeStyle;rounded=0;orthogonalLoop=1;jettySize=auto;html=1;exitX=0.5;exitY=1;exitDx=0;exitDy=0;entryX=0;entryY=0.5;entryDx=0;entryDy=0;" edge="1" source="b8qgKqUeZm1vUjHzAKTM-11" target="b8qgKqUeZm1vUjHzAKTM-14" parent="1">
          <mxGeometry relative="1" as="geometry" />
        </mxCell>
        <mxCell id="b8qgKqUeZm1vUjHzAKTM-11" value="LUT&lt;br&gt;RAM" style="rounded=0;whiteSpace=wrap;html=1;fillColor=none;" vertex="1" parent="1">
          <mxGeometry x="320" y="100" width="40" height="80" as="geometry" />
        </mxCell>
        <mxCell id="b8qgKqUeZm1vUjHzAKTM-12" style="edgeStyle=orthogonalEdgeStyle;rounded=0;orthogonalLoop=1;jettySize=auto;html=1;entryX=0.5;entryY=0;entryDx=0;entryDy=0;" edge="1" target="b8qgKqUeZm1vUjHzAKTM-11" parent="1">
          <mxGeometry relative="1" as="geometry">
            <mxPoint x="280" y="80" as="sourcePoint" />
            <Array as="points">
              <mxPoint x="280" y="80" />
              <mxPoint x="340" y="80" />
            </Array>
          </mxGeometry>
        </mxCell>
        <mxCell id="b8qgKqUeZm1vUjHzAKTM-14" value="" style="whiteSpace=wrap;html=1;fillColor=none;strokeColor=none;" vertex="1" parent="1">
          <mxGeometry x="400" y="180" width="40" height="40" as="geometry" />
        </mxCell>
        <mxCell id="b8qgKqUeZm1vUjHzAKTM-15" value="2" style="endArrow=classic;startArrow=classic;html=1;rounded=0;" edge="1" parent="1">
          <mxGeometry width="50" height="50" relative="1" as="geometry">
            <mxPoint x="320" y="220" as="sourcePoint" />
            <mxPoint x="360" y="220" as="targetPoint" />
          </mxGeometry>
        </mxCell>
        <mxCell id="b8qgKqUeZm1vUjHzAKTM-16" value="32" style="endArrow=classic;startArrow=classic;html=1;rounded=0;" edge="1" parent="1">
          <mxGeometry width="50" height="50" relative="1" as="geometry">
            <mxPoint x="300" y="100" as="sourcePoint" />
            <mxPoint x="300" y="180" as="targetPoint" />
          </mxGeometry>
        </mxCell>
        <mxCell id="b8qgKqUeZm1vUjHzAKTM-17" value="cost = LUT*2" style="text;html=1;align=center;verticalAlign=middle;resizable=0;points=[];autosize=1;strokeColor=none;fillColor=none;" vertex="1" parent="1">
          <mxGeometry x="280" y="240" width="90" height="30" as="geometry" />
        </mxCell>
        <mxCell id="b8qgKqUeZm1vUjHzAKTM-18" style="edgeStyle=orthogonalEdgeStyle;rounded=0;orthogonalLoop=1;jettySize=auto;html=1;exitX=0.5;exitY=1;exitDx=0;exitDy=0;entryX=0;entryY=0.5;entryDx=0;entryDy=0;" edge="1" source="b8qgKqUeZm1vUjHzAKTM-19" target="b8qgKqUeZm1vUjHzAKTM-22" parent="1">
          <mxGeometry relative="1" as="geometry" />
        </mxCell>
        <mxCell id="b8qgKqUeZm1vUjHzAKTM-19" value="BRAM&lt;br&gt;18" style="rounded=0;whiteSpace=wrap;html=1;fillColor=none;" vertex="1" parent="1">
          <mxGeometry x="480" y="79.6" width="40" height="120" as="geometry" />
        </mxCell>
        <mxCell id="b8qgKqUeZm1vUjHzAKTM-20" style="edgeStyle=orthogonalEdgeStyle;rounded=0;orthogonalLoop=1;jettySize=auto;html=1;entryX=0.5;entryY=0;entryDx=0;entryDy=0;" edge="1" target="b8qgKqUeZm1vUjHzAKTM-19" parent="1">
          <mxGeometry relative="1" as="geometry">
            <mxPoint x="440" y="59.6" as="sourcePoint" />
            <Array as="points">
              <mxPoint x="440" y="59.6" />
              <mxPoint x="500" y="59.6" />
            </Array>
          </mxGeometry>
        </mxCell>
        <mxCell id="b8qgKqUeZm1vUjHzAKTM-22" value="" style="whiteSpace=wrap;html=1;fillColor=none;strokeColor=none;" vertex="1" parent="1">
          <mxGeometry x="560" y="199.6" width="40" height="40" as="geometry" />
        </mxCell>
        <mxCell id="b8qgKqUeZm1vUjHzAKTM-23" value="72" style="endArrow=classic;startArrow=classic;html=1;rounded=0;" edge="1" parent="1">
          <mxGeometry width="50" height="50" relative="1" as="geometry">
            <mxPoint x="480" y="239.6" as="sourcePoint" />
            <mxPoint x="520" y="239.6" as="targetPoint" />
          </mxGeometry>
        </mxCell>
        <mxCell id="b8qgKqUeZm1vUjHzAKTM-24" value="256" style="endArrow=classic;startArrow=classic;html=1;rounded=0;" edge="1" parent="1">
          <mxGeometry width="50" height="50" relative="1" as="geometry">
            <mxPoint x="460" y="80" as="sourcePoint" />
            <mxPoint x="460" y="200" as="targetPoint" />
          </mxGeometry>
        </mxCell>
        <mxCell id="b8qgKqUeZm1vUjHzAKTM-25" style="edgeStyle=orthogonalEdgeStyle;rounded=0;orthogonalLoop=1;jettySize=auto;html=1;exitX=0.5;exitY=1;exitDx=0;exitDy=0;entryX=0;entryY=1;entryDx=0;entryDy=0;" edge="1" source="b8qgKqUeZm1vUjHzAKTM-26" parent="1">
          <mxGeometry relative="1" as="geometry">
            <mxPoint x="720" y="239.60000000000002" as="targetPoint" />
            <Array as="points">
              <mxPoint x="660" y="240" />
              <mxPoint x="720" y="240" />
            </Array>
          </mxGeometry>
        </mxCell>
        <mxCell id="b8qgKqUeZm1vUjHzAKTM-26" value="URAM&lt;br&gt;288" style="rounded=0;whiteSpace=wrap;html=1;fillColor=none;" vertex="1" parent="1">
          <mxGeometry x="640" y="60" width="40" height="160" as="geometry" />
        </mxCell>
        <mxCell id="b8qgKqUeZm1vUjHzAKTM-27" style="edgeStyle=orthogonalEdgeStyle;rounded=0;orthogonalLoop=1;jettySize=auto;html=1;entryX=0.5;entryY=0;entryDx=0;entryDy=0;" edge="1" target="b8qgKqUeZm1vUjHzAKTM-26" parent="1">
          <mxGeometry relative="1" as="geometry">
            <mxPoint x="600" y="40" as="sourcePoint" />
            <Array as="points">
              <mxPoint x="660" y="40" />
            </Array>
          </mxGeometry>
        </mxCell>
        <mxCell id="b8qgKqUeZm1vUjHzAKTM-29" value="72" style="endArrow=classic;startArrow=classic;html=1;rounded=0;" edge="1" parent="1">
          <mxGeometry width="50" height="50" relative="1" as="geometry">
            <mxPoint x="640" y="260" as="sourcePoint" />
            <mxPoint x="680" y="260" as="targetPoint" />
          </mxGeometry>
        </mxCell>
        <mxCell id="b8qgKqUeZm1vUjHzAKTM-30" value="4096" style="endArrow=classic;startArrow=classic;html=1;rounded=0;" edge="1" parent="1">
          <mxGeometry width="50" height="50" relative="1" as="geometry">
            <mxPoint x="620" y="60" as="sourcePoint" />
            <mxPoint x="620" y="220" as="targetPoint" />
          </mxGeometry>
        </mxCell>
      </root>
    </mxGraphModel>
  </diagram>
</mxfile>
